<?xml version="1.0" standalone="no"?>
<!DOCTYPE svg PUBLIC "-//W3C//DTD SVG 20010904//EN"
 "http://www.w3.org/TR/2001/REC-SVG-20010904/DTD/svg10.dtd">
<svg version="1.0" xmlns="http://www.w3.org/2000/svg"
 width="500.000000pt" height="500.000000pt" viewBox="0 0 500.000000 500.000000"
 preserveAspectRatio="xMidYMid meet">
<metadata>
Created by potrace 1.16, written by Peter Selinger 2001-2019
</metadata>
<g transform="translate(0.000000,500.000000) scale(0.100000,-0.100000)"
fill="#000000" stroke="none">
<path d="M613 3531 c-128 -21 -281 -83 -359 -147 -118 -95 -176 -301 -135
-474 29 -123 130 -278 205 -317 17 -9 56 -17 88 -17 46 -1 62 3 79 21 l22 21
-31 40 c-73 92 -107 206 -100 342 5 100 40 189 104 260 85 94 227 119 282 51
29 -37 61 -111 72 -169 24 -119 -29 -329 -154 -614 l-16 -38 218 0 218 0 48
121 c102 257 131 457 85 591 -53 157 -176 268 -348 313 -76 19 -207 27 -278
16z"/>
<path d="M1812 3529 c-170 -30 -320 -182 -402 -408 -42 -116 -70 -287 -77
-473 l-6 -158 196 0 c196 0 197 0 201 23 3 12 10 83 16 157 22 259 60 433 125
576 31 68 36 74 63 74 68 0 127 -112 176 -330 34 -155 54 -281 62 -400 l7
-100 125 0 125 0 -6 148 c-10 229 -62 436 -165 655 -60 126 -112 184 -194 215
-66 25 -174 34 -246 21z"/>
<path d="M2985 3529 c-140 -21 -301 -94 -377 -170 -57 -57 -93 -128 -113 -226
-18 -86 -18 -120 0 -208 27 -130 128 -290 209 -332 47 -24 140 -23 166 3 l20
20 -38 55 c-72 101 -108 243 -91 363 11 85 68 194 128 248 53 48 104 68 171
68 37 0 48 -5 81 -39 85 -90 104 -238 55 -424 -20 -77 -98 -288 -142 -384 -5
-10 41 -13 211 -13 l216 0 29 63 c84 187 135 397 128 534 -4 79 -10 102 -41
168 -61 127 -178 221 -327 260 -72 19 -210 26 -285 14z"/>
<path d="M4243 3530 c-141 -21 -304 -93 -379 -168 -108 -107 -152 -299 -109
-466 22 -85 82 -192 140 -252 42 -43 60 -54 107 -64 43 -10 63 -10 91 -1 51
17 53 35 10 93 -80 109 -114 289 -78 414 30 105 97 199 167 235 52 26 129 35
167 19 59 -24 121 -161 121 -268 0 -98 -51 -284 -130 -469 l-48 -113 218 0
219 0 49 128 c122 314 136 482 57 648 -93 193 -342 302 -602 264z"/>
<path d="M230 2401 c0 -5 19 -11 43 -13 l42 -3 -4 -152 c-3 -145 -2 -152 18
-162 15 -9 27 -9 41 -1 19 10 20 21 20 165 l0 155 38 0 39 0 53 -161 c30 -89
60 -164 68 -166 24 -10 38 19 67 130 16 59 32 110 36 113 5 2 26 -51 47 -118
36 -111 42 -123 63 -123 21 0 26 12 67 163 40 150 46 191 23 166 -4 -5 -21
-55 -36 -112 -16 -56 -32 -99 -36 -95 -3 5 -15 33 -24 62 -10 30 -29 79 -42
109 -20 42 -29 53 -46 50 -17 -2 -26 -21 -49 -103 -15 -55 -31 -107 -34 -115
-3 -9 -17 15 -33 60 -15 41 -35 93 -46 115 l-20 40 -147 3 c-95 2 -148 0 -148
-7z"/>
<path d="M952 2397 c-14 -16 -27 -229 -18 -289 7 -44 8 -46 48 -52 48 -8 158
3 158 15 0 5 -29 9 -65 9 l-65 0 0 40 c0 39 1 40 35 40 47 0 45 18 -2 22 -29
2 -38 7 -37 21 0 9 1 53 2 97 l2 79 65 3 c99 5 84 23 -21 26 -66 2 -94 -1
-102 -11z"/>
<path d="M1170 2391 c-16 -30 -18 -313 -2 -318 9 -4 12 24 12 116 0 67 4 121
8 121 5 0 31 -55 59 -122 37 -90 56 -124 69 -126 42 -5 48 11 55 157 4 78 11
150 14 161 4 14 2 20 -9 20 -15 0 -18 -12 -33 -159 l-8 -73 -38 88 c-20 49
-46 104 -57 122 -22 36 -54 42 -70 13z"/>
<path d="M1400 2401 c0 -6 18 -11 41 -13 l41 -3 -1 -156 c-2 -138 0 -157 15
-163 9 -4 25 -4 35 -1 17 6 19 21 21 163 l3 157 43 3 c23 2 42 7 42 13 0 5
-52 9 -120 9 -68 0 -120 -4 -120 -9z"/>
<path d="M1644 2374 c-11 -61 1 -132 27 -160 20 -21 31 -25 66 -22 41 3 41 3
36 -27 -8 -42 -20 -63 -43 -75 -15 -8 -24 -6 -40 10 -11 11 -20 29 -20 41 0
11 -4 17 -10 14 -17 -11 -11 -43 14 -72 20 -23 32 -28 66 -27 83 3 114 63 113
223 -1 112 -11 135 -53 124 -17 -4 -20 -16 -22 -91 -3 -77 -5 -87 -22 -90 -32
-7 -46 25 -46 104 0 56 -3 73 -16 78 -32 12 -43 6 -50 -30z"/>
<path d="M2010 2401 c0 -5 19 -11 43 -13 l42 -3 -4 -126 c-5 -176 4 -206 58
-192 20 5 21 11 21 164 l0 159 38 0 38 0 56 -162 c45 -134 59 -164 76 -166 22
-3 26 4 63 148 12 47 25 89 29 94 5 4 26 -47 48 -115 36 -111 43 -124 64 -124
21 0 26 13 65 155 46 166 48 180 33 180 -5 0 -19 -33 -30 -72 -12 -40 -27 -90
-33 -111 l-12 -37 -45 112 c-37 91 -49 114 -67 116 -19 3 -25 -6 -47 -80 -14
-46 -28 -98 -32 -115 -7 -36 -19 -36 -28 1 -3 13 -22 62 -41 108 l-36 86 -149
1 c-92 1 -150 -2 -150 -8z"/>
<path d="M2733 2398 c-14 -18 -26 -204 -17 -277 l6 -59 41 -6 c47 -8 157 3
157 15 0 5 -29 9 -65 9 l-65 0 0 40 c0 39 1 40 34 40 19 0 38 5 41 10 4 6 -10
10 -34 10 l-41 0 0 100 0 99 65 3 c99 5 84 23 -21 26 -65 2 -94 -1 -101 -10z"/>
<path d="M2961 2401 c-16 -10 -38 -261 -27 -305 14 -58 26 -22 26 82 0 59 4
113 9 120 5 9 26 -30 60 -113 41 -95 57 -125 71 -125 39 0 47 23 53 162 4 73
10 143 13 156 5 16 2 22 -9 22 -16 0 -18 -14 -33 -165 -6 -61 -8 -67 -17 -45
-6 14 -30 69 -55 123 -45 96 -58 109 -91 88z"/>
<path d="M3180 2401 c0 -6 19 -11 42 -13 l42 -3 -3 -151 c-2 -128 0 -152 13
-164 12 -9 23 -10 37 -3 20 8 21 17 23 163 l1 155 43 3 c23 2 42 7 42 13 0 5
-52 9 -120 9 -68 0 -120 -4 -120 -9z"/>
<path d="M3424 2374 c-11 -58 3 -134 28 -161 19 -20 31 -24 66 -21 23 2 42 1
42 -2 0 -3 -5 -22 -10 -42 -20 -71 -81 -83 -95 -18 -4 17 -11 27 -17 24 -12
-8 -1 -54 19 -76 35 -39 120 -26 151 23 22 34 33 129 26 216 -7 85 -14 96 -53
86 -19 -5 -21 -12 -21 -94 0 -88 0 -89 -25 -89 -33 0 -47 36 -44 113 3 61 -6
77 -43 77 -12 0 -19 -11 -24 -36z"/>
<path d="M3820 2401 c0 -5 19 -11 42 -13 l43 -3 -4 -151 c-2 -129 -1 -152 13
-163 12 -10 23 -11 37 -4 20 8 21 17 23 163 l1 155 40 0 40 0 55 -160 c74
-215 87 -218 135 -27 16 61 32 112 35 112 4 0 25 -55 47 -122 36 -109 43 -123
63 -123 21 0 26 13 66 160 49 179 49 178 32 173 -7 -3 -27 -53 -44 -113 -17
-60 -33 -104 -36 -99 -3 5 -11 27 -18 49 -7 22 -26 71 -43 108 -25 56 -34 67
-51 65 -17 -2 -26 -22 -53 -113 -17 -60 -32 -112 -33 -115 0 -3 -15 33 -33 80
-18 47 -40 99 -48 115 l-14 30 -148 3 c-94 2 -147 0 -147 -7z"/>
<path d="M4566 2390 c-54 -35 -76 -85 -76 -171 0 -63 4 -82 23 -110 84 -125
237 -35 237 139 0 106 -43 162 -123 162 -18 0 -45 -9 -61 -20z m139 -43 c52
-79 8 -257 -64 -257 -58 0 -90 82 -71 176 15 71 42 104 85 104 25 0 39 -6 50
-23z"/>
<path d="M350 1855 c-87 -184 -105 -239 -94 -282 13 -50 46 -71 144 -89 67
-13 125 -15 275 -11 205 6 268 17 291 52 33 50 -10 74 -156 86 -58 4 -122 8
-142 8 -21 1 -38 5 -38 10 0 5 43 80 96 167 53 86 98 163 101 170 4 12 -33 14
-206 14 l-212 0 -59 -125z"/>
<path d="M1410 1976 c0 -17 80 -196 112 -251 54 -92 161 -198 230 -230 109
-50 249 -40 342 24 95 65 209 265 250 434 l6 27 -109 0 -110 0 -11 -56 c-17
-79 -54 -186 -87 -245 -49 -90 -102 -112 -149 -62 -38 41 -102 182 -127 279
l-22 84 -162 0 c-90 0 -163 -2 -163 -4z"/>
<path d="M2728 1853 c-103 -216 -116 -271 -75 -318 35 -42 109 -57 305 -62
237 -7 378 15 395 62 9 23 -1 41 -31 55 -25 11 -182 28 -274 29 -21 1 -38 5
-38 10 0 5 45 84 100 175 55 90 100 167 100 170 0 3 -95 6 -211 6 l-210 0 -61
-127z"/>
<path d="M3977 1843 c-88 -185 -102 -231 -87 -278 16 -47 38 -60 139 -81 69
-13 120 -16 275 -11 235 6 306 25 306 79 0 34 -71 55 -215 63 -71 4 -132 8
-134 11 -2 2 40 75 92 162 53 87 99 166 103 175 6 16 -10 17 -203 17 l-210 0
-66 -137z"/>
</g>
</svg>
